{
  "accessors": [
    {
      "bufferView": 2,
      "componentType": 5126,
      "count": 33082,
      "max": [
        0.2199649065732956,
        0.22768649458885193,
        0.28839540481567383
      ],
      "min": [
        -0.13458380103111267,
        -0.23275139927864075,
        -0.2843290865421295
      ],
      "type": "VEC3"
    },
    {
      "bufferView": 2,
      "byteOffset": 396984,
      "componentType": 5126,
      "count": 33082,
      "max": [
        0.9999033212661743,
        0.9989629983901978,
        0.9999430179595947
      ],
      "min": [
        -0.9999009966850281,
        -0.9995728731155396,
        -0.9997683167457581
      ],
      "type": "VEC3"
    },
    {
      "bufferView": 1,
      "componentType": 5126,
      "count": 33082,
      "max": [
        0.9974228739738464,
        0.9919121861457825
      ],
      "min": [
        0.0025919668842107058,
        0.0026689169462770224
      ],
      "type": "VEC2"
    },
    {
      "bufferView": 0,
      "componentType": 5125,
      "count": 150000,
      "type": "SCALAR"
    }
  ],
  "asset": {
    "extras": {
      "author": "vicente betoret ferrero (https://sketchfab.com/deathcow)",
      "license": "CC-BY-4.0 (http://creativecommons.org/licenses/by/4.0/)",
      "source": "https://sketchfab.com/3d-models/snowman-mask-c616ade077ce4b0c80d14775c595a86d",
      "title": "snowman  mask"
    },
    "generator": "Sketchfab-16.8.0",
    "version": "2.0"
  },
  "bufferViews": [
    {
      "buffer": 0,
      "byteLength": 600000,
      "name": "floatBufferViews",
      "target": 34963
    },
    {
      "buffer": 0,
      "byteLength": 264656,
      "byteOffset": 600000,
      "byteStride": 8,
      "name": "floatBufferViews",
      "target": 34962
    },
    {
      "buffer": 0,
      "byteLength": 793968,
      "byteOffset": 864656,
      "byteStride": 12,
      "name": "floatBufferViews",
      "target": 34962
    }
  ],
  "buffers": [
    {
      "byteLength": 1658624,
      "uri": "scene.bin"
    }
  ],
  "images": [
    {
      "uri": "textures/Material_0_baseColor.jpeg"
    }
  ],
  "materials": [
    {
      "doubleSided": true,
      "name": "Material_0",
      "pbrMetallicRoughness": {
        "baseColorTexture": {
          "index": 0
        },
        "metallicFactor": 0.0,
        "roughnessFactor": 0.6
      }
    }
  ],
  "meshes": [
    {
      "name": "Material_0-material",
      "primitives": [
        {
          "attributes": {
            "NORMAL": 1,
            "POSITION": 0,
            "TEXCOORD_0": 2
          },
          "indices": 3,
          "material": 0,
          "mode": 4
        }
      ]
    }
  ],
  "nodes": [
    {
      "children": [
        1
      ],
      "matrix": [
        1.0,
        0.0,
        0.0,
        0.0,
        0.0,
        2.220446049250313e-16,
        -1.0,
        0.0,
        0.0,
        1.0,
        2.220446049250313e-16,
        0.0,
        0.0,
        0.0,
        0.0,
        1.0
      ],
      "name": "Sketchfab_model"
    },
    {
      "children": [
        2
      ],
      "name": "Collada visual scene group"
    },
    {
      "children": [
        3
      ],
      "matrix": [
        1.74604,
        0.0,
        0.0,
        0.0,
        0.0,
        1.74604,
        0.0,
        0.0,
        0.0,
        0.0,
        1.74604,
        0.0,
        0.0,
        0.0,
        0.4566205,
        1.0
      ],
      "name": "high_poly"
    },
    {
      "mesh": 0,
      "name": "Material_0-material"
    }
  ],
  "samplers": [
    {
      "magFilter": 9729,
      "minFilter": 9987,
      "wrapS": 10497,
      "wrapT": 10497
    }
  ],
  "scene": 0,
  "scenes": [
    {
      "name": "Sketchfab_Scene",
      "nodes": [
        0
      ]
    }
  ],
  "textures": [
    {
      "sampler": 0,
      "source": 0
    }
  ]
}
