{
  "accessors": [
    {
      "bufferView": 2,
      "componentType": 5126,
      "count": 3970,
      "max": [
        0.9935951828956604,
        0.9941549301147461,
        0.7074939608573914
      ],
      "min": [
        -0.9935951828956604,
        -0.9935951828956604,
        -0.05950538441538811
      ],
      "type": "VEC3"
    },
    {
      "bufferView": 2,
      "byteOffset": 47640,
      "componentType": 5126,
      "count": 3970,
      "max": [
        0.9999660849571228,
        0.9999926686286926,
        1.0
      ],
      "min": [
        -0.999964714050293,
        -0.9998970627784729,
        -1.0
      ],
      "type": "VEC3"
    },
    {
      "bufferView": 1,
      "componentType": 5126,
      "count": 3970,
      "max": [
        0.0,
        0.0
      ],
      "min": [
        0.0,
        0.0
      ],
      "type": "VEC2"
    },
    {
      "bufferView": 0,
      "componentType": 5125,
      "count": 23040,
      "type": "SCALAR"
    },
    {
      "bufferView": 2,
      "byteOffset": 95280,
      "componentType": 5126,
      "count": 1024,
      "max": [
        0.7115839123725891,
        0.7120341062545776,
        0.18767349421977997
      ],
      "min": [
        -0.7120341658592224,
        -0.7120342254638672,
        0.010497779585421085
      ],
      "type": "VEC3"
    },
    {
      "bufferView": 2,
      "byteOffset": 107568,
      "componentType": 5126,
      "count": 1024,
      "max": [
        0.9999606013298035,
        0.9999619722366333,
        0.9657078981399536
      ],
      "min": [
        -0.9999591708183289,
        -0.999963104724884,
        -0.9995095133781433
      ],
      "type": "VEC3"
    },
    {
      "bufferView": 1,
      "byteOffset": 31760,
      "componentType": 5126,
      "count": 1024,
      "max": [
        0.0,
        0.0
      ],
      "min": [
        0.0,
        0.0
      ],
      "type": "VEC2"
    },
    {
      "bufferView": 0,
      "byteOffset": 92160,
      "componentType": 5125,
      "count": 5376,
      "type": "SCALAR"
    }
  ],
  "asset": {
    "extras": {
      "author": "Josean_3dev (https://sketchfab.com/Josean_3dev)",
      "license": "CC-BY-4.0 (http://creativecommons.org/licenses/by/4.0/)",
      "source": "https://sketchfab.com/3d-models/hat-sombrero-413d75a26c9944f7946984e10692d97d",
      "title": "Hat | Sombrero"
    },
    "generator": "Sketchfab-13.26.0",
    "version": "2.0"
  },
  "bufferViews": [
    {
      "buffer": 0,
      "byteLength": 113664,
      "name": "floatBufferViews",
      "target": 34963
    },
    {
      "buffer": 0,
      "byteLength": 39952,
      "byteOffset": 113664,
      "byteStride": 8,
      "name": "floatBufferViews",
      "target": 34962
    },
    {
      "buffer": 0,
      "byteLength": 119856,
      "byteOffset": 153616,
      "byteStride": 12,
      "name": "floatBufferViews",
      "target": 34962
    }
  ],
  "buffers": [
    {
      "byteLength": 273472,
      "uri": "scene.bin"
    }
  ],
  "materials": [
    {
      "doubleSided": true,
      "name": "material",
      "pbrMetallicRoughness": {
        "baseColorFactor": [
          0.0146571,
          0.00994966,
          0.00850232,
          1.0
        ],
        "metallicFactor": 0.0,
        "roughnessFactor": 0.7089514939474102
      }
    },
    {
      "doubleSided": true,
      "name": "Cinta",
      "pbrMetallicRoughness": {
        "baseColorFactor": [
          0.0154797,
          0.0243993,
          0.0577999,
          1.0
        ],
        "metallicFactor": 0.0,
        "roughnessFactor": 0.46171569284782576
      }
    }
  ],
  "meshes": [
    {
      "name": "Hat_Hat_0",
      "primitives": [
        {
          "attributes": {
            "NORMAL": 1,
            "POSITION": 0,
            "TEXCOORD_0": 2
          },
          "indices": 3,
          "material": 0,
          "mode": 4
        }
      ]
    },
    {
      "name": "Hat_Cinta_0",
      "primitives": [
        {
          "attributes": {
            "NORMAL": 5,
            "POSITION": 4,
            "TEXCOORD_0": 6
          },
          "indices": 7,
          "material": 1,
          "mode": 4
        }
      ]
    }
  ],
  "nodes": [
    {
      "children": [
        1
      ],
      "matrix": [
        1.0,
        0.0,
        0.0,
        0.0,
        0.0,
        2.220446049250313e-16,
        -1.0,
        0.0,
        0.0,
        1.0,
        2.220446049250313e-16,
        0.0,
        0.0,
        0.0,
        0.0,
        1.0
      ],
      "name": "Sketchfab_model"
    },
    {
      "children": [
        2
      ],
      "matrix": [
        0.009999999776482582,
        0.0,
        0.0,
        0.0,
        0.0,
        0.0,
        0.009999999776482582,
        0.0,
        0.0,
        -0.009999999776482582,
        0.0,
        0.0,
        0.0,
        0.0,
        0.0,
        1.0
      ],
      "name": "db41cb21a64a412e871b92a407c55bc9.fbx"
    },
    {
      "children": [
        3
      ],
      "name": "RootNode"
    },
    {
      "children": [
        4,
        5
      ],
      "matrix": [
        9.749053337474368,
        -3.382826398152074e-15,
        17.820825476756266,
        0.0,
        17.820825476756248,
        -8.879179538672446e-07,
        -9.749053337474361,
        0.0,
        1.0064101060080352e-06,
        26.244045257568335,
        -5.50566287301662e-07,
        0.0,
        0.0,
        0.0,
        0.0,
        1.0
      ],
      "name": "Hat"
    },
    {
      "mesh": 0,
      "name": "Hat_Hat_0"
    },
    {
      "mesh": 1,
      "name": "Hat_Cinta_0"
    }
  ],
  "scene": 0,
  "scenes": [
    {
      "name": "Sketchfab_Scene",
      "nodes": [
        0
      ]
    }
  ]
}
