{
  "accessors": [
    {
      "bufferView": 2,
      "componentType": 5126,
      "count": 566,
      "max": [
        0.32943108677864075,
        0.2043079137802124,
        0.9264941215515137
      ],
      "min": [
        -0.32943108677864075,
        -0.1479785144329071,
        0.0
      ],
      "type": "VEC3"
    },
    {
      "bufferView": 2,
      "byteOffset": 6792,
      "componentType": 5126,
      "count": 566,
      "max": [
        0.9458094835281372,
        0.9979680180549622,
        0.9405333399772644
      ],
      "min": [
        -0.9458094835281372,
        -0.9979530572891235,
        -0.9405305981636047
      ],
      "type": "VEC3"
    },
    {
      "bufferView": 3,
      "componentType": 5126,
      "count": 566,
      "max": [
        0.9999930262565613,
        0.9762808680534363,
        0.9527811408042908,
        1.0
      ],
      "min": [
        -0.9999998211860657,
        -0.9760863780975342,
        -0.9530287981033325,
        1.0
      ],
      "type": "VEC4"
    },
    {
      "bufferView": 1,
      "componentType": 5126,
      "count": 566,
      "max": [
        0.9804782271385193,
        0.9552426338195801
      ],
      "min": [
        0.004533633589744568,
        0.3999108076095581
      ],
      "type": "VEC2"
    },
    {
      "bufferView": 0,
      "componentType": 5125,
      "count": 1716,
      "type": "SCALAR"
    },
    {
      "bufferView": 2,
      "byteOffset": 13584,
      "componentType": 5126,
      "count": 971,
      "max": [
        0.2603470981121063,
        0.024952679872512817,
        0.7822953462600708
      ],
      "min": [
        -0.26860156655311584,
        -0.15551255643367767,
        0.11473309993743896
      ],
      "type": "VEC3"
    },
    {
      "bufferView": 2,
      "byteOffset": 25236,
      "componentType": 5126,
      "count": 971,
      "max": [
        0.9895209074020386,
        0.8121146559715271,
        0.996857762336731
      ],
      "min": [
        -0.9861099123954773,
        -0.9998526573181152,
        -0.9948493242263794
      ],
      "type": "VEC3"
    },
    {
      "bufferView": 3,
      "byteOffset": 9056,
      "componentType": 5126,
      "count": 971,
      "max": [
        0.9999915361404419,
        0.9948315024375916,
        0.9826661348342896,
        1.0
      ],
      "min": [
        -0.8306329250335693,
        -0.9975956678390503,
        -0.9831311702728271,
        -1.0
      ],
      "type": "VEC4"
    },
    {
      "bufferView": 1,
      "byteOffset": 4528,
      "componentType": 5126,
      "count": 971,
      "max": [
        0.667609453201294,
        0.42903706431388855
      ],
      "min": [
        0.3345332145690918,
        0.042139045894145966
      ],
      "type": "VEC2"
    },
    {
      "bufferView": 0,
      "byteOffset": 6864,
      "componentType": 5125,
      "count": 3030,
      "type": "SCALAR"
    }
  ],
  "asset": {
    "extras": {
      "author": "T-Art (https://sketchfab.com/person-x)",
      "license": "CC-BY-4.0 (http://creativecommons.org/licenses/by/4.0/)",
      "source": "https://sketchfab.com/3d-models/skull-mask-31356fbc95e7490c8ca2f75199c2b23a",
      "title": "Skull Mask"
    },
    "generator": "Sketchfab-12.68.0",
    "version": "2.0"
  },
  "bufferViews": [
    {
      "buffer": 0,
      "byteLength": 18984,
      "name": "floatBufferViews",
      "target": 34963
    },
    {
      "buffer": 0,
      "byteLength": 12296,
      "byteOffset": 18984,
      "byteStride": 8,
      "name": "floatBufferViews",
      "target": 34962
    },
    {
      "buffer": 0,
      "byteLength": 36888,
      "byteOffset": 31280,
      "byteStride": 12,
      "name": "floatBufferViews",
      "target": 34962
    },
    {
      "buffer": 0,
      "byteLength": 24592,
      "byteOffset": 68168,
      "byteStride": 16,
      "name": "floatBufferViews",
      "target": 34962
    }
  ],
  "buffers": [
    {
      "byteLength": 92760,
      "uri": "scene.bin"
    }
  ],
  "images": [
    {
      "uri": "textures/Mask_baseColor.jpeg"
    },
    {
      "uri": "textures/Mask_metallicRoughness.png"
    },
    {
      "uri": "textures/Mask_normal.png"
    },
    {
      "uri": "textures/Skull_baseColor.jpeg"
    },
    {
      "uri": "textures/Skull_metallicRoughness.png"
    },
    {
      "uri": "textures/Skull_normal.png"
    }
  ],
  "materials": [
    {
      "doubleSided": true,
      "name": "Mask",
      "normalTexture": {
        "index": 2
      },
      "occlusionTexture": {
        "index": 1
      },
      "pbrMetallicRoughness": {
        "baseColorTexture": {
          "index": 0
        },
        "metallicRoughnessTexture": {
          "index": 1
        }
      }
    },
    {
      "doubleSided": true,
      "name": "Skull",
      "normalTexture": {
        "index": 5
      },
      "occlusionTexture": {
        "index": 4
      },
      "pbrMetallicRoughness": {
        "baseColorTexture": {
          "index": 3
        },
        "metallicRoughnessTexture": {
          "index": 4
        }
      }
    }
  ],
  "meshes": [
    {
      "name": "Mask_Mask_0",
      "primitives": [
        {
          "attributes": {
            "NORMAL": 1,
            "POSITION": 0,
            "TANGENT": 2,
            "TEXCOORD_0": 3
          },
          "indices": 4,
          "material": 0,
          "mode": 4
        }
      ]
    },
    {
      "name": "Mask_ Skull_0",
      "primitives": [
        {
          "attributes": {
            "NORMAL": 6,
            "POSITION": 5,
            "TANGENT": 7,
            "TEXCOORD_0": 8
          },
          "indices": 9,
          "material": 1,
          "mode": 4
        }
      ]
    }
  ],
  "nodes": [
    {
      "children": [
        1
      ],
      "matrix": [
        1.0,
        0.0,
        0.0,
        0.0,
        0.0,
        2.220446049250313e-16,
        -1.0,
        0.0,
        0.0,
        1.0,
        2.220446049250313e-16,
        0.0,
        0.0,
        0.0,
        0.0,
        1.0
      ],
      "name": "Sketchfab_model"
    },
    {
      "children": [
        2
      ],
      "matrix": [
        1.0,
        0.0,
        0.0,
        0.0,
        0.0,
        0.0,
        1.0,
        0.0,
        0.0,
        -1.0,
        0.0,
        0.0,
        0.0,
        0.0,
        0.0,
        1.0
      ],
      "name": "skull_mask.fbx"
    },
    {
      "children": [
        3
      ],
      "name": "RootNode"
    },
    {
      "children": [
        4,
        5
      ],
      "matrix": [
        50.79364013671875,
        0.0,
        0.0,
        0.0,
        0.0,
        -7.917745270570249e-06,
        -48.59877395629819,
        0.0,
        0.0,
        54.329185485839126,
        -8.851347810157854e-06,
        0.0,
        0.0,
        0.0,
        0.0,
        1.0
      ],
      "name": "Mask"
    },
    {
      "mesh": 0,
      "name": "Mask_Mask_0"
    },
    {
      "mesh": 1,
      "name": "Mask_ Skull_0"
    }
  ],
  "samplers": [
    {
      "magFilter": 9729,
      "minFilter": 9987,
      "wrapS": 10497,
      "wrapT": 10497
    }
  ],
  "scene": 0,
  "scenes": [
    {
      "name": "Sketchfab_Scene",
      "nodes": [
        0
      ]
    }
  ],
  "textures": [
    {
      "sampler": 0,
      "source": 0
    },
    {
      "sampler": 0,
      "source": 1
    },
    {
      "sampler": 0,
      "source": 2
    },
    {
      "sampler": 0,
      "source": 3
    },
    {
      "sampler": 0,
      "source": 4
    },
    {
      "sampler": 0,
      "source": 5
    }
  ]
}
